# xmcd CD database file
#
# Track frame offsets:
#	150
#	13236
#	26424
#	47022
#	57528
#	71980
#	85495
#	103236
#	127722
#	158738
#	185979
#	200554
#	226390
#	247215
#	268794
#	296646
#
# Disc length: 4158 seconds
#
# Revision: 0
# Processed by: cddbd v1.5.1PL2 Copyright (c) Steve Scherf et al.
# Submitted via: CDex 1.70beta2
#
DISCID=f8103c10
DTITLE=Various Artist - Master Of Blues Vol. 1
DYEAR=1900
DGENRE=Blues
TTITLE0=B. B. King - Ain'T Nobody Here But Us Chickens
TTITLE1=Joe Swift - Alligator Meat
TTITLE2=John Lee Hooker - Boogie At Rusian Hill
TTITLE3=Keeb Mo - Am I Wrong
TTITLE4=Chet Atkins -  Yesterday
TTITLE5=Lightnin Hopkins - Baby Please Don't Go
TTITLE6=John Mayal - Mama Talk To Your Daughter
TTITLE7=Louis Jordan - Saturday Night Fish Fry
TTITLE8=Freddie king - Boogie Funk
TTITLE9=Joe Louis Walker - Every Girl I See
TTITLE10=Johnny Dyer - BBQ At J.D.S
TTITLE11=Big Twist - Too Much Barbeque
TTITLE12=Robben Ford - Start It Up
TTITLE13=Teh Robert Cray Band - That Wasn't Me
TTITLE14=Willie Dixon - Back door Man
TTITLE15=Albert Collins Don'T Loose Your Cool
EXTD=
EXTT0=
EXTT1=
EXTT2=
EXTT3=
EXTT4=
EXTT5=
EXTT6=
EXTT7=
EXTT8=
EXTT9=
EXTT10=
EXTT11=
EXTT12=
EXTT13=
EXTT14=
EXTT15=
PLAYORDER=
